<svg width="194" height="59" viewBox="0 0 194 59" fill="none" xmlns="http://www.w3.org/2000/svg">
<path d="M94.8887 51H90.5547L90.582 47.8008H94.8887C95.9642 47.8008 96.8711 47.5592 97.6094 47.0762C98.3477 46.584 98.9036 45.8685 99.2773 44.9297C99.6602 43.9909 99.8516 42.8561 99.8516 41.5254V40.5547C99.8516 39.5339 99.7422 38.6361 99.5234 37.8613C99.3138 37.0866 98.9993 36.4349 98.5801 35.9062C98.1608 35.3776 97.6458 34.9811 97.0352 34.7168C96.4245 34.4434 95.7227 34.3066 94.9297 34.3066H90.4727V31.0938H94.9297C96.2604 31.0938 97.4772 31.3216 98.5801 31.7773C99.6921 32.224 100.654 32.8665 101.465 33.7051C102.276 34.5436 102.9 35.5462 103.338 36.7129C103.785 37.8704 104.008 39.1602 104.008 40.582V41.5254C104.008 42.9382 103.785 44.2279 103.338 45.3945C102.9 46.5612 102.276 47.5638 101.465 48.4023C100.663 49.2318 99.7012 49.8743 98.5801 50.3301C97.4681 50.7767 96.2376 51 94.8887 51ZM92.8789 31.0938V51H88.7773V31.0938H92.8789ZM125.527 44.3965H129.615C129.533 45.7363 129.164 46.9258 128.508 47.9648C127.861 49.0039 126.954 49.8151 125.787 50.3984C124.63 50.9818 123.235 51.2734 121.604 51.2734C120.327 51.2734 119.184 51.0547 118.172 50.6172C117.16 50.1706 116.294 49.5326 115.574 48.7031C114.863 47.8737 114.321 46.8711 113.947 45.6953C113.574 44.5195 113.387 43.2025 113.387 41.7441V40.3633C113.387 38.9049 113.578 37.5879 113.961 36.4121C114.353 35.2272 114.909 34.2201 115.629 33.3906C116.358 32.5612 117.229 31.9232 118.24 31.4766C119.252 31.0299 120.382 30.8066 121.631 30.8066C123.29 30.8066 124.689 31.1074 125.828 31.709C126.977 32.3105 127.865 33.14 128.494 34.1973C129.132 35.2546 129.515 36.4577 129.643 37.8066H125.541C125.495 37.0046 125.336 36.3255 125.062 35.7695C124.789 35.2044 124.374 34.7806 123.818 34.498C123.271 34.2064 122.542 34.0605 121.631 34.0605C120.947 34.0605 120.35 34.1882 119.84 34.4434C119.329 34.6986 118.901 35.0859 118.555 35.6055C118.208 36.125 117.949 36.7812 117.775 37.5742C117.611 38.3581 117.529 39.2786 117.529 40.3359V41.7441C117.529 42.7741 117.607 43.681 117.762 44.4648C117.917 45.2396 118.154 45.8958 118.473 46.4336C118.801 46.9622 119.22 47.3633 119.73 47.6367C120.25 47.901 120.874 48.0332 121.604 48.0332C122.46 48.0332 123.167 47.8965 123.723 47.623C124.279 47.3496 124.702 46.944 124.994 46.4062C125.295 45.8685 125.473 45.1986 125.527 44.3965ZM150.848 44.3965H154.936C154.854 45.7363 154.484 46.9258 153.828 47.9648C153.181 49.0039 152.274 49.8151 151.107 50.3984C149.95 50.9818 148.555 51.2734 146.924 51.2734C145.648 51.2734 144.504 51.0547 143.492 50.6172C142.48 50.1706 141.615 49.5326 140.895 48.7031C140.184 47.8737 139.641 46.8711 139.268 45.6953C138.894 44.5195 138.707 43.2025 138.707 41.7441V40.3633C138.707 38.9049 138.898 37.5879 139.281 36.4121C139.673 35.2272 140.229 34.2201 140.949 33.3906C141.678 32.5612 142.549 31.9232 143.561 31.4766C144.572 31.0299 145.702 30.8066 146.951 30.8066C148.61 30.8066 150.009 31.1074 151.148 31.709C152.297 32.3105 153.186 33.14 153.814 34.1973C154.452 35.2546 154.835 36.4577 154.963 37.8066H150.861C150.816 37.0046 150.656 36.3255 150.383 35.7695C150.109 35.2044 149.695 34.7806 149.139 34.498C148.592 34.2064 147.863 34.0605 146.951 34.0605C146.268 34.0605 145.671 34.1882 145.16 34.4434C144.65 34.6986 144.221 35.0859 143.875 35.6055C143.529 36.125 143.269 36.7812 143.096 37.5742C142.932 38.3581 142.85 39.2786 142.85 40.3359V41.7441C142.85 42.7741 142.927 43.681 143.082 44.4648C143.237 45.2396 143.474 45.8958 143.793 46.4336C144.121 46.9622 144.54 47.3633 145.051 47.6367C145.57 47.901 146.195 48.0332 146.924 48.0332C147.781 48.0332 148.487 47.8965 149.043 47.623C149.599 47.3496 150.023 46.944 150.314 46.4062C150.615 45.8685 150.793 45.1986 150.848 44.3965ZM166.502 31.0938H169.975L175.088 45.709L180.201 31.0938H183.674L176.482 51H173.693L166.502 31.0938ZM164.629 31.0938H168.088L168.717 45.3398V51H164.629V31.0938ZM182.088 31.0938H185.561V51H181.459V45.3398L182.088 31.0938Z" fill="black"/>
<path fill-rule="evenodd" clip-rule="evenodd" d="M57.35 0H23.783L7 29.07L23.783 58.14H57.35L74.133 29.07L57.35 0Z" fill="#73C000"/>
<path d="M44.7147 23.8742C44.4971 24.5516 44.6162 25.3206 45.1066 25.9049C45.8659 26.8099 47.2175 26.9272 48.1254 26.1655C49.0327 25.4042 49.1518 24.0527 48.3924 23.1478C47.7622 22.3966 46.7277 22.1971 45.8742 22.5822C43.2249 20.8052 39.6105 20.9011 37.0421 23.0562C34.1807 25.4572 33.5645 29.6148 35.6085 32.7272C35.7647 32.9649 35.9379 33.1966 36.1253 33.42C38.1045 35.7786 41.3357 36.591 44.1392 35.6408C44.92 36.3144 46.0939 36.3473 46.9115 35.6613C47.8188 34.9 47.9388 33.5496 47.1786 32.6436C46.4188 31.7382 45.0676 31.6213 44.1603 32.3826C43.6456 32.8146 43.3939 33.4359 43.4029 34.0582C41.2948 34.6942 38.9153 34.0766 37.4392 32.3175C37.2943 32.1448 37.1619 31.9672 37.042 31.7837C35.4742 29.398 35.9476 26.21 38.1428 24.368C40.0478 22.7696 42.7039 22.6484 44.7147 23.8742" stroke="white" stroke-width="1.1"/>
<mask id="mask0_0_4" style="mask-type:alpha" maskUnits="userSpaceOnUse" x="33" y="20" width="17" height="17">
<path fill-rule="evenodd" clip-rule="evenodd" d="M44.7147 23.8742C44.4971 24.5516 44.6162 25.3206 45.1066 25.9049C45.8659 26.8099 47.2175 26.9272 48.1254 26.1655C49.0327 25.4042 49.1518 24.0527 48.3924 23.1478C47.7622 22.3966 46.7277 22.1971 45.8742 22.5822C43.2249 20.8052 39.6105 20.9011 37.0421 23.0562C34.1807 25.4572 33.5645 29.6148 35.6085 32.7272C35.7647 32.9649 35.9379 33.1966 36.1253 33.42C38.1045 35.7786 41.3357 36.591 44.1392 35.6408C44.92 36.3144 46.0939 36.3473 46.9115 35.6613C47.8188 34.9 47.9388 33.5496 47.1786 32.6436C46.4188 31.7382 45.0676 31.6213 44.1603 32.3826C43.6456 32.8146 43.3939 33.4359 43.4029 34.0582C41.2948 34.6942 38.9153 34.0766 37.4392 32.3175C37.2943 32.1448 37.1619 31.9672 37.042 31.7837C35.4742 29.398 35.9476 26.21 38.1428 24.368C40.0478 22.7696 42.7039 22.6484 44.7147 23.8742" fill="white"/>
<path d="M44.7147 23.8742C44.4971 24.5516 44.6162 25.3206 45.1066 25.9049C45.8659 26.8099 47.2175 26.9272 48.1254 26.1655C49.0327 25.4042 49.1518 24.0527 48.3924 23.1478C47.7622 22.3966 46.7277 22.1971 45.8742 22.5822C43.2249 20.8052 39.6105 20.9011 37.0421 23.0562C34.1807 25.4572 33.5645 29.6148 35.6085 32.7272C35.7647 32.9649 35.9379 33.1966 36.1253 33.42C38.1045 35.7786 41.3357 36.591 44.1392 35.6408C44.92 36.3144 46.0939 36.3473 46.9115 35.6613C47.8188 34.9 47.9388 33.5496 47.1786 32.6436C46.4188 31.7382 45.0676 31.6213 44.1603 32.3826C43.6456 32.8146 43.3939 33.4359 43.4029 34.0582C41.2948 34.6942 38.9153 34.0766 37.4392 32.3175C37.2943 32.1448 37.1619 31.9672 37.042 31.7837C35.4742 29.398 35.9476 26.21 38.1428 24.368C40.0478 22.7696 42.7039 22.6484 44.7147 23.8742" stroke="white" stroke-width="1.1"/>
</mask>
<g mask="url(#mask0_0_4)">
<path fill-rule="evenodd" clip-rule="evenodd" d="M45.1066 25.9049C45.8659 26.8099 47.2175 26.9272 48.1254 26.1655C49.0327 25.4042 49.1518 24.0527 48.3924 23.1478C47.7622 22.3966 46.7277 22.1971 45.8742 22.5822C43.2249 20.8052 39.6105 20.9011 37.0421 23.0562C34.1807 25.4572 33.5645 29.6148 35.6085 32.7272C35.7647 32.9649 35.9379 33.1966 36.1253 33.42C38.1045 35.7786 41.3357 36.591 44.1392 35.6408C44.92 36.3144 46.0939 36.3473 46.9115 35.6613C47.8188 34.9 47.9388 33.5496 47.1786 32.6436C46.4188 31.7382 45.0676 31.6213 44.1603 32.3826C43.6456 32.8146 43.3939 33.4359 43.4029 34.0582C41.2948 34.6942 38.9153 34.0766 37.4392 32.3175C37.2943 32.1448 37.1619 31.9672 37.042 31.7837C35.4742 29.398 35.9476 26.21 38.1428 24.368C40.0478 22.7696 42.7039 22.6484 44.7147 23.8742C44.4971 24.5516 44.6162 25.3206 45.1066 25.9049Z" fill="white" stroke="white"/>
</g>
<path fill-rule="evenodd" clip-rule="evenodd" d="M51.4566 17.4649C50.7526 16.6259 49.4701 16.5438 48.5926 17.2801C47.7146 18.0169 47.5733 19.2936 48.2773 20.1327C48.8916 20.8647 49.9475 21.0202 50.7896 20.5572C51.0657 20.8279 51.3409 21.0994 51.5908 21.3973C55.9617 26.6063 55.0797 34.5686 49.6253 39.1454C48.1419 40.3901 46.4375 41.2855 44.6176 41.7924C44.5728 41.7209 44.5315 41.6483 44.4761 41.5824C43.7725 40.7438 42.4902 40.6608 41.6122 41.3976C40.7342 42.1343 40.5932 43.4116 41.2968 44.2501C42.0005 45.0886 43.2823 45.1711 44.1604 44.4344C44.501 44.1485 44.7267 43.782 44.8393 43.3912C46.9516 42.828 48.9293 41.8004 50.6451 40.3607C56.8011 35.1951 57.7956 26.2086 52.8628 20.3299C52.5391 19.9441 52.191 19.5813 51.8277 19.2356C51.9909 18.6277 51.8784 17.9676 51.4566 17.4649Z" stroke="white" stroke-width="1.1"/>
<mask id="mask1_0_4" style="mask-type:alpha" maskUnits="userSpaceOnUse" x="40" y="16" width="17" height="30">
<path fill-rule="evenodd" clip-rule="evenodd" d="M51.4566 17.4649C50.7526 16.6259 49.4701 16.5438 48.5926 17.2801C47.7146 18.0169 47.5733 19.2936 48.2773 20.1327C48.8916 20.8647 49.9475 21.0202 50.7896 20.5572C51.0657 20.8279 51.3409 21.0994 51.5908 21.3973C55.9617 26.6063 55.0797 34.5686 49.6253 39.1454C48.1419 40.3901 46.4375 41.2855 44.6176 41.7924C44.5728 41.7209 44.5315 41.6483 44.4761 41.5824C43.7725 40.7438 42.4902 40.6608 41.6122 41.3976C40.7342 42.1343 40.5932 43.4116 41.2968 44.2501C42.0005 45.0886 43.2823 45.1711 44.1604 44.4344C44.501 44.1485 44.7267 43.782 44.8393 43.3912C46.9516 42.828 48.9293 41.8004 50.6451 40.3607C56.8011 35.1951 57.7956 26.2086 52.8628 20.3299C52.5391 19.9441 52.191 19.5813 51.8277 19.2356C51.9909 18.6277 51.8784 17.9676 51.4566 17.4649Z" fill="white" stroke="white" stroke-width="1.1"/>
</mask>
<g mask="url(#mask1_0_4)">
<path fill-rule="evenodd" clip-rule="evenodd" d="M51.4566 17.4649C50.7526 16.6259 49.4701 16.5438 48.5926 17.2801C47.7146 18.0169 47.5733 19.2936 48.2773 20.1327C48.8916 20.8647 49.9475 21.0202 50.7896 20.5572C51.0657 20.8279 51.3409 21.0994 51.5908 21.3973C55.9617 26.6063 55.0797 34.5686 49.6253 39.1454C48.1419 40.3901 46.4375 41.2855 44.6176 41.7924C44.5728 41.7209 44.5315 41.6483 44.4761 41.5824C43.7725 40.7438 42.4902 40.6608 41.6122 41.3976C40.7342 42.1343 40.5932 43.4116 41.2968 44.2501C42.0005 45.0886 43.2823 45.1711 44.1604 44.4344C44.501 44.1485 44.7267 43.782 44.8393 43.3912C46.9516 42.828 48.9293 41.8004 50.6451 40.3607C56.8011 35.1951 57.7956 26.2086 52.8628 20.3299C52.5391 19.9441 52.191 19.5813 51.8277 19.2356C51.9909 18.6277 51.8784 17.9676 51.4566 17.4649Z" fill="white" stroke="white" stroke-width="1.1"/>
</g>
<path fill-rule="evenodd" clip-rule="evenodd" d="M18.6536 23.3283C17.7637 24.075 17.647 25.3999 18.3915 26.2871C19.1369 27.1754 20.4615 27.2901 21.3514 26.5434C22.2402 25.7976 22.3578 24.4727 21.6125 23.5844C21.5334 23.4903 21.4439 23.4094 21.3526 23.3318C22.4854 19.471 24.7413 15.9896 27.8467 13.3838C36.2136 6.36314 48.5829 7.17893 55.9453 15.0468C55.6222 15.7596 55.7049 16.6225 56.2412 17.2616C56.9861 18.1494 58.3107 18.264 59.2001 17.5178C60.0889 16.7719 60.2065 15.4471 59.4616 14.5593C58.8929 13.8816 57.9877 13.6585 57.1952 13.9196C49.2308 5.38388 35.8288 4.4934 26.767 12.0971C23.4094 14.9146 20.9688 18.6808 19.7425 22.8564C19.3549 22.9047 18.9753 23.0583 18.6536 23.3283Z" stroke="white" stroke-width="1.1"/>
<mask id="mask2_0_4" style="mask-type:alpha" maskUnits="userSpaceOnUse" x="17" y="6" width="44" height="22">
<path fill-rule="evenodd" clip-rule="evenodd" d="M18.6536 23.3283C17.7637 24.075 17.647 25.3999 18.3915 26.2871C19.1369 27.1754 20.4615 27.2901 21.3514 26.5434C22.2402 25.7976 22.3578 24.4727 21.6125 23.5844C21.5334 23.4903 21.4439 23.4094 21.3526 23.3318C22.4854 19.471 24.7413 15.9896 27.8467 13.3838C36.2136 6.36314 48.5829 7.17893 55.9453 15.0468C55.6222 15.7596 55.7049 16.6225 56.2412 17.2616C56.9861 18.1494 58.3107 18.264 59.2001 17.5178C60.0889 16.7719 60.2065 15.4471 59.4616 14.5593C58.8929 13.8816 57.9877 13.6585 57.1952 13.9196C49.2308 5.38388 35.8288 4.4934 26.767 12.0971C23.4094 14.9146 20.9688 18.6808 19.7425 22.8564C19.3549 22.9047 18.9753 23.0583 18.6536 23.3283Z" fill="white" stroke="white" stroke-width="1.1"/>
</mask>
<g mask="url(#mask2_0_4)">
<path fill-rule="evenodd" clip-rule="evenodd" d="M18.6536 23.3283C17.7637 24.075 17.647 25.3999 18.3915 26.2871C19.1369 27.1754 20.4615 27.2901 21.3514 26.5434C22.2402 25.7976 22.3578 24.4727 21.6125 23.5844C21.5334 23.4903 21.4439 23.4094 21.3526 23.3318C22.4854 19.471 24.7413 15.9896 27.8467 13.3838C36.2136 6.36314 48.5829 7.17893 55.9453 15.0468C55.6222 15.7596 55.7049 16.6225 56.2412 17.2616C56.9861 18.1494 58.3107 18.264 59.2001 17.5178C60.0889 16.7719 60.2065 15.4471 59.4616 14.5593C58.8929 13.8816 57.9877 13.6585 57.1952 13.9196C49.2308 5.38388 35.8288 4.4934 26.767 12.0971C23.4094 14.9146 20.9688 18.6808 19.7425 22.8564C19.3549 22.9047 18.9753 23.0583 18.6536 23.3283Z" fill="white" stroke="white" stroke-width="1.1"/>
</g>
<path fill-rule="evenodd" clip-rule="evenodd" d="M30.306 38.9306C31.1512 39.9379 32.1266 40.7866 33.1982 41.5054C33.2055 41.9563 33.3485 42.4007 33.6533 42.7639C34.3923 43.6447 35.7531 43.7192 36.6919 42.9314C37.6313 42.1432 37.7942 40.7901 37.0552 39.9094C36.3162 39.0286 34.9553 38.9541 34.016 39.7423C33.9729 39.7785 33.9395 39.8217 33.8996 39.8606C33.0779 39.2701 32.3291 38.5801 31.6658 37.7896C30.6317 36.5573 29.8639 35.1363 29.3789 33.6078C29.3972 33.5933 29.418 33.5839 29.4359 33.5689C30.3752 32.7807 30.5376 31.428 29.7986 30.5473C29.0596 29.6665 27.6988 29.591 26.7595 30.3793C25.8207 31.167 25.6582 32.5207 26.3972 33.4014C26.731 33.7992 27.1929 34.0234 27.6852 34.0871C28.2295 35.8602 29.1116 37.5072 30.306 38.9306Z" stroke="white" stroke-width="1.1"/>
<mask id="mask3_0_4" style="mask-type:alpha" maskUnits="userSpaceOnUse" x="25" y="29" width="14" height="16">
<path fill-rule="evenodd" clip-rule="evenodd" d="M30.306 38.9306C31.1512 39.9379 32.1266 40.7866 33.1982 41.5054C33.2055 41.9563 33.3485 42.4007 33.6533 42.7639C34.3923 43.6447 35.7531 43.7192 36.6919 42.9314C37.6313 42.1432 37.7942 40.7901 37.0552 39.9094C36.3162 39.0286 34.9553 38.9541 34.016 39.7423C33.9729 39.7785 33.9395 39.8217 33.8996 39.8606C33.0779 39.2701 32.3291 38.5801 31.6658 37.7896C30.6317 36.5573 29.8639 35.1363 29.3789 33.6078C29.3972 33.5933 29.418 33.5839 29.4359 33.5689C30.3752 32.7807 30.5376 31.428 29.7986 30.5473C29.0596 29.6665 27.6988 29.591 26.7595 30.3793C25.8207 31.167 25.6582 32.5207 26.3972 33.4014C26.731 33.7992 27.1929 34.0234 27.6852 34.0871C28.2295 35.8602 29.1116 37.5072 30.306 38.9306Z" fill="white" stroke="white" stroke-width="1.1"/>
</mask>
<g mask="url(#mask3_0_4)">
<path fill-rule="evenodd" clip-rule="evenodd" d="M30.306 38.9306C31.1512 39.9379 32.1266 40.7866 33.1982 41.5054C33.2055 41.9563 33.3485 42.4007 33.6533 42.7639C34.3923 43.6447 35.7531 43.7192 36.6919 42.9314C37.6313 42.1432 37.7942 40.7901 37.0552 39.9094C36.3162 39.0286 34.9553 38.9541 34.016 39.7423C33.9729 39.7785 33.9395 39.8217 33.8996 39.8606C33.0779 39.2701 32.3291 38.5801 31.6658 37.7896C30.6317 36.5573 29.8639 35.1363 29.3789 33.6078C29.3972 33.5933 29.418 33.5839 29.4359 33.5689C30.3752 32.7807 30.5376 31.428 29.7986 30.5473C29.0596 29.6665 27.6988 29.591 26.7595 30.3793C25.8207 31.167 25.6582 32.5207 26.3972 33.4014C26.731 33.7992 27.1929 34.0234 27.6852 34.0871C28.2295 35.8602 29.1116 37.5072 30.306 38.9306Z" fill="white" stroke="white" stroke-width="1.1"/>
</g>
<path fill-rule="evenodd" clip-rule="evenodd" d="M38.7073 13.3697C38.363 13.6585 38.1361 14.0349 38.0287 14.4409C35.7085 14.9476 33.5533 15.9981 31.7105 17.5444C30.6713 18.4164 29.7898 19.4206 29.0387 20.5181C28.3884 20.346 27.6746 20.473 27.127 20.9325C26.2239 21.6903 26.1182 23.05 26.8904 23.9702C27.6626 24.8904 29.0204 25.023 29.9235 24.2652C30.7131 23.6026 30.8919 22.4797 30.4084 21.5921C31.0847 20.5881 31.8835 19.6721 32.8297 18.8782C34.4288 17.5363 36.2907 16.6114 38.2969 16.1523C38.351 16.2386 38.4035 16.3263 38.4712 16.4069C39.2433 17.3272 40.6007 17.4592 41.5033 16.7018C42.4059 15.9445 42.5121 14.5844 41.7399 13.6641C40.9677 12.7439 39.6098 12.6123 38.7073 13.3697Z" stroke="white" stroke-width="1.1"/>
<mask id="mask4_0_4" style="mask-type:alpha" maskUnits="userSpaceOnUse" x="25" y="12" width="18" height="14">
<path fill-rule="evenodd" clip-rule="evenodd" d="M38.7073 13.3697C38.363 13.6585 38.1361 14.0349 38.0287 14.4409C35.7085 14.9476 33.5533 15.9981 31.7105 17.5444C30.6713 18.4164 29.7898 19.4206 29.0387 20.5181C28.3884 20.346 27.6746 20.473 27.127 20.9325C26.2239 21.6903 26.1182 23.05 26.8904 23.9702C27.6626 24.8904 29.0204 25.023 29.9235 24.2652C30.7131 23.6026 30.8919 22.4797 30.4084 21.5921C31.0847 20.5881 31.8835 19.6721 32.8297 18.8782C34.4288 17.5363 36.2907 16.6114 38.2969 16.1523C38.351 16.2386 38.4035 16.3263 38.4712 16.4069C39.2433 17.3272 40.6007 17.4592 41.5033 16.7018C42.4059 15.9445 42.5121 14.5844 41.7399 13.6641C40.9677 12.7439 39.6098 12.6123 38.7073 13.3697Z" fill="white" stroke="white" stroke-width="1.1"/>
</mask>
<g mask="url(#mask4_0_4)">
<path fill-rule="evenodd" clip-rule="evenodd" d="M38.7073 13.3697C38.363 13.6585 38.1361 14.0349 38.0287 14.4409C35.7085 14.9476 33.5533 15.9981 31.7105 17.5444C30.6713 18.4164 29.7898 19.4206 29.0387 20.5181C28.3884 20.346 27.6746 20.473 27.127 20.9325C26.2239 21.6903 26.1182 23.05 26.8904 23.9702C27.6626 24.8904 29.0204 25.023 29.9235 24.2652C30.7131 23.6026 30.8919 22.4797 30.4084 21.5921C31.0847 20.5881 31.8835 19.6721 32.8297 18.8782C34.4288 17.5363 36.2907 16.6114 38.2969 16.1523C38.351 16.2386 38.4035 16.3263 38.4712 16.4069C39.2433 17.3272 40.6007 17.4592 41.5033 16.7018C42.4059 15.9445 42.5121 14.5844 41.7399 13.6641C40.9677 12.7439 39.6098 12.6123 38.7073 13.3697Z" fill="white" stroke="white" stroke-width="1.1"/>
</g>
<path fill-rule="evenodd" clip-rule="evenodd" d="M62.2952 32.1579C61.5116 37.1182 59.0007 41.5693 55.0891 44.8516C46.2862 52.2381 33.1443 51.1217 25.7938 42.3617C25.0667 41.4952 24.4233 40.5685 23.8497 39.6035C24.4349 38.8271 24.4365 37.7286 23.7878 36.9555C23.0323 36.0552 21.6868 35.9408 20.7821 36.6999C19.8774 37.4591 19.7564 38.804 20.5118 39.7043C20.9832 40.2661 21.6835 40.5214 22.3643 40.4503C22.9883 41.5048 23.6904 42.5157 24.4837 43.461C32.4374 52.94 46.658 54.1496 56.184 46.1564C60.4347 42.5896 63.156 37.7443 63.9912 32.3495C64.2539 32.2671 64.5062 32.1331 64.7305 31.9449C65.6357 31.1853 65.7567 29.8404 65.0008 28.9395C64.2458 28.0398 62.8998 27.9248 61.9946 28.6844C61.0899 29.4436 60.9693 30.7891 61.7243 31.6888C61.8891 31.8852 62.0853 32.0369 62.2952 32.1579Z" stroke="white" stroke-width="1.1"/>
<mask id="mask5_0_4" style="mask-type:alpha" maskUnits="userSpaceOnUse" x="19" y="27" width="48" height="25">
<path fill-rule="evenodd" clip-rule="evenodd" d="M62.2952 32.1579C61.5116 37.1182 59.0007 41.5693 55.0891 44.8516C46.2862 52.2381 33.1443 51.1217 25.7938 42.3617C25.0667 41.4952 24.4233 40.5685 23.8497 39.6035C24.4349 38.8271 24.4365 37.7286 23.7878 36.9555C23.0323 36.0552 21.6868 35.9408 20.7821 36.6999C19.8774 37.4591 19.7564 38.804 20.5118 39.7043C20.9832 40.2661 21.6835 40.5214 22.3643 40.4503C22.9883 41.5048 23.6904 42.5157 24.4837 43.461C32.4374 52.94 46.658 54.1496 56.184 46.1564C60.4347 42.5896 63.156 37.7443 63.9912 32.3495C64.2539 32.2671 64.5062 32.1331 64.7305 31.9449C65.6357 31.1853 65.7567 29.8404 65.0008 28.9395C64.2458 28.0398 62.8998 27.9248 61.9946 28.6844C61.0899 29.4436 60.9693 30.7891 61.7243 31.6888C61.8891 31.8852 62.0853 32.0369 62.2952 32.1579Z" fill="white" stroke="white" stroke-width="1.1"/>
</mask>
<g mask="url(#mask5_0_4)">
<path fill-rule="evenodd" clip-rule="evenodd" d="M62.2952 32.1579C61.5116 37.1182 59.0007 41.5693 55.0891 44.8516C46.2862 52.2381 33.1443 51.1217 25.7938 42.3617C25.0667 41.4952 24.4233 40.5685 23.8497 39.6035C24.4349 38.8271 24.4365 37.7286 23.7878 36.9555C23.0323 36.0552 21.6868 35.9408 20.7821 36.6999C19.8774 37.4591 19.7564 38.804 20.5118 39.7043C20.9832 40.2661 21.6835 40.5214 22.3643 40.4503C22.9883 41.5048 23.6904 42.5157 24.4837 43.461C32.4374 52.94 46.658 54.1496 56.184 46.1564C60.4347 42.5896 63.156 37.7443 63.9912 32.3495C64.2539 32.2671 64.5062 32.1331 64.7305 31.9449C65.6357 31.1853 65.7567 29.8404 65.0008 28.9395C64.2458 28.0398 62.8998 27.9248 61.9946 28.6844C61.0899 29.4436 60.9693 30.7891 61.7243 31.6888C61.8891 31.8852 62.0853 32.0369 62.2952 32.1579Z" fill="white" stroke="white" stroke-width="1.1"/>
</g>
</svg>
